# xmcd
#
# Track frame offsets:
#  150
#  12873
#  29356
#  43293
#  69037
#  81909
#  93019
#  109124
#  123678
#  135885
#  149969
#  167481
#  181889
#  209791
#  243449
#  257665
#
# Disc length: 3647 seconds
#
# Revision: 1
# Processed by: cddbd v1.5.1PL0 Copyright (c) Steve Scherf et al.
# Submitted via: Collectorz.com_Music_Collector 6.9
#
DISCID=df0e3d10
DTITLE=Various Artist - This Is The Blues Harmonica, Vol. 2
DYEAR=2004
DGENRE=Blues -  Blues Harmonica
TTITLE0=Junior Wells - Tomorrow Night [alternate take]
TTITLE1=Hammie Nixon - Sleepy John Estes - Love Grows in Your Heart
TTITLE2=Carey Bell - Carey's Rhumba
TTITLE3=Mark Hummel - Dave Specter - Steve Freund - I Got My Brand on You
TTITLE4=Shakey Jake - Magic Sam - That Ain't It [alternate take]
TTITLE5=Walto Pace - Fox Chase/Lost John
TTITLE6=Mad Dog Lester Davenport - West Side Blues Harp
TTITLE7=Little Walter - Baby Face Leroy Trio - Rollin' and Tumblin', Pt. 2
TTITLE8=Louis Myers - That's Alright [alternate take]
TTITLE9=Alfred Blues King Harris - Miss Ida [alternate take]
TTITLE10=Tad Robinson - Coming Home
TTITLE11=Little Sammy Davis - Devil's Trail
TTITLE12=Little Mack Simmons - Eddie Clearwater - Muddy Waters Goin' to Run Clear
TTITLE13=Big Wheeler - Chicago Winter Weather Blues [alternate take]
TTITLE14=Big Walter Horton - Back Home to Mama
TTITLE15=Eddie Burns - Hastings Street Special
EXTD=
EXTT0=
EXTT1=
EXTT2=
EXTT3=
EXTT4=
EXTT5=
EXTT6=
EXTT7=
EXTT8=
EXTT9=
EXTT10=
EXTT11=
EXTT12=
EXTT13=
EXTT14=
EXTT15=
PLAYORDER=
